<svg width="48" height="48" viewBox="0 0 48 48" fill="none" xmlns="http://www.w3.org/2000/svg">
<circle cx="24" cy="24" r="24" fill="#72B3EA"/>
<path d="M11.8518 24.7066V17.4987C11.8518 17.0363 12.0345 16.6191 12.4 16.2471C12.7654 15.8752 13.1753 15.6892 13.6296 15.6892H19.2592V12.9448C19.2592 12.4823 19.437 12.0651 19.7925 11.6932C20.1481 11.3212 20.5629 11.1353 21.037 11.1353H26.3703C26.8246 11.1353 27.2345 11.3212 27.6 11.6932C27.9654 12.0651 28.1481 12.4823 28.1481 12.9448V15.6892H33.7777C34.2518 15.6892 34.6666 15.8752 35.0222 16.2471C35.3777 16.6191 35.5555 17.0363 35.5555 17.4987V24.7066H26.4V23.8018C26.4 23.5455 26.3146 23.3306 26.144 23.1572C25.9734 22.9838 25.7619 22.8971 25.5097 22.8971H21.9487C21.6964 22.8971 21.4864 22.9838 21.3185 23.1572C21.1506 23.3306 21.0666 23.5455 21.0666 23.8018V24.7066H11.8518ZM21.037 15.6892H26.3703V12.9448H21.037V15.6892ZM22.8444 26.5161V24.7066H24.6222V26.5161H22.8444ZM13.6296 34.0557C13.1753 34.0557 12.7654 33.8698 12.4 33.4978C12.0345 33.1258 11.8518 32.7086 11.8518 32.2462V26.5161H21.0666V27.4209C21.0666 27.6772 21.1519 27.8921 21.3226 28.0655C21.4932 28.2389 21.7046 28.3256 21.9569 28.3256H25.5179C25.7701 28.3256 25.9802 28.2389 26.1481 28.0655C26.316 27.8921 26.4 27.6772 26.4 27.4209V26.5161H35.5555V32.2462C35.5555 32.7086 35.3777 33.1258 35.0222 33.4978C34.6666 33.8698 34.2518 34.0557 33.7777 34.0557H13.6296Z" fill="white"/>
</svg>
