<svg width="72" height="72" viewBox="0 0 72 72" fill="none" xmlns="http://www.w3.org/2000/svg">
<circle cx="36" cy="36" r="36" fill="#72B3EA"/>
<path d="M21.1556 48.8889L17.8667 37.4667C17.7482 37.1111 17.7704 36.763 17.9333 36.4223C18.0963 36.0815 18.3556 35.8519 18.7111 35.7334L21.3333 34.8445V24.8889C21.3333 24.1482 21.5926 23.526 22.1111 23.0222C22.6296 22.5185 23.2593 22.2519 24 22.2222H30.6667V18.2222C30.6667 17.8445 30.7945 17.5278 31.05 17.2722C31.3056 17.0167 31.6222 16.8889 32 16.8889H39.1111C39.4889 16.8889 39.8056 17.0167 40.0611 17.2722C40.3167 17.5278 40.4445 17.8445 40.4445 18.2222V22.2222H47.1111C47.8445 22.2222 48.4722 22.4834 48.9945 23.0056C49.5167 23.5278 49.7778 24.1556 49.7778 24.8889V34.8889L52.4445 35.7334C52.7704 35.8519 53.0148 36.0741 53.1778 36.4C53.3408 36.726 53.363 37.0667 53.2445 37.4223L49.9556 48.8889C48.8 48.7704 47.7111 48.4593 46.6889 47.9556C45.6667 47.4519 44.7259 46.8445 43.8667 46.1334C43.6889 45.9852 43.5026 45.8815 43.3077 45.8223C43.1128 45.763 42.9128 45.7334 42.7077 45.7334C42.5026 45.7334 42.3062 45.7772 42.1185 45.865C41.9309 45.9527 41.758 46.0718 41.6 46.2222C40.7421 46.9952 39.8017 47.6329 38.7788 48.1353C37.7559 48.6377 36.6815 48.8889 35.5556 48.8889C34.4296 48.8889 33.3552 48.6377 32.3323 48.1353C31.3094 47.6329 30.369 46.9952 29.5111 46.2222C29.3497 46.0718 29.1732 45.9527 28.9816 45.865C28.7899 45.7772 28.5932 45.7334 28.3915 45.7334C28.1898 45.7334 27.9926 45.763 27.8 45.8223C27.6074 45.8815 27.4222 45.9852 27.2445 46.1334C26.3852 46.8445 25.4445 47.4519 24.4222 47.9556C23.4 48.4593 22.3111 48.7704 21.1556 48.8889ZM19.1111 56C18.7333 56 18.4167 55.8714 18.1611 55.6143C17.9056 55.3573 17.7778 55.0389 17.7778 54.6589C17.7778 54.2789 17.9056 53.963 18.1611 53.7111C18.4167 53.4593 18.7333 53.3334 19.1111 53.3334H21.3333C22.4006 53.3334 23.4526 53.1926 24.4893 52.9111C25.5261 52.6297 26.5185 52.2223 27.4667 51.6889C27.6148 51.6297 27.7707 51.5778 27.9345 51.5334C28.0982 51.4889 28.2682 51.4667 28.4445 51.4667C28.6207 51.4667 28.7907 51.4889 28.9545 51.5334C29.1182 51.5778 29.2741 51.6297 29.4222 51.6889C30.3704 52.1926 31.3704 52.5778 32.4222 52.8445C33.4741 53.1111 34.5185 53.2445 35.5556 53.2445C36.5926 53.2445 37.637 53.1111 38.6889 52.8445C39.7407 52.5778 40.7407 52.1926 41.6889 51.6889C41.837 51.6297 41.993 51.5778 42.1567 51.5334C42.3204 51.4889 42.4904 51.4667 42.6667 51.4667C42.843 51.4667 43.013 51.4889 43.1767 51.5334C43.3404 51.5778 43.4963 51.6297 43.6445 51.6889C44.5926 52.2223 45.585 52.6297 46.6218 52.9111C47.6586 53.1926 48.7106 53.3334 49.7778 53.3334H52C52.3778 53.3334 52.6945 53.4619 52.95 53.7189C53.2056 53.976 53.3333 54.2945 53.3333 54.6745C53.3333 55.0545 53.2056 55.3704 52.95 55.6222C52.6945 55.8741 52.3778 56 52 56H49.7778C48.563 56 47.363 55.8445 46.1778 55.5334C44.9926 55.2223 43.8222 54.7704 42.6667 54.1778C41.5111 54.7704 40.3259 55.2223 39.1111 55.5334C37.8963 55.8445 36.7111 56 35.5556 56C34.4 56 33.2148 55.8445 32 55.5334C30.7852 55.2223 29.6 54.7704 28.4445 54.1778C27.2889 54.7704 26.1185 55.2223 24.9333 55.5334C23.7482 55.8445 22.5482 56 21.3333 56H19.1111ZM24 34L34.7111 30.5334C34.9825 30.4445 35.2651 30.4 35.5591 30.4C35.853 30.4 36.1333 30.4445 36.4 30.5334L47.1111 34.0445V24.8889H24V34Z" fill="white"/>
</svg>
