<svg width="48" height="48" viewBox="0 0 48 48" fill="none" xmlns="http://www.w3.org/2000/svg">
<circle cx="24" cy="24" r="24" fill="#72B3EA"/>
<path d="M14.8148 35.1563C14.3259 35.1563 13.9074 34.9791 13.5592 34.6247C13.2111 34.2704 13.037 33.8444 13.037 33.3468V20.2278C13.037 19.7302 13.2111 19.3042 13.5592 18.9498C13.9074 18.5955 14.3259 18.4183 14.8148 18.4183H17.9259V15.2516C17.9259 14.754 18.0999 14.328 18.4481 13.9737C18.7962 13.6193 19.2148 13.4421 19.7037 13.4421H27.7037C28.1925 13.4421 28.6111 13.6193 28.9592 13.9737C29.3074 14.328 29.4814 14.754 29.4814 15.2516V23.3945H32.5925C33.0814 23.3945 33.4999 23.5716 33.8481 23.926C34.1962 24.2804 34.3703 24.7063 34.3703 25.204V33.3468C34.3703 33.8444 34.1962 34.2704 33.8481 34.6247C33.4999 34.9791 33.0814 35.1563 32.5925 35.1563H25.274V30.1801H22.1333V35.1563H14.8148ZM14.8148 33.3468H17.9259V30.1801H14.8148V33.3468ZM14.8148 28.3706H17.9259V25.204H14.8148V28.3706ZM14.8148 23.3945H17.9259V20.2278H14.8148V23.3945ZM19.7037 28.3706H22.8148V25.204H19.7037V28.3706ZM19.7037 23.3945H22.8148V20.2278H19.7037V23.3945ZM19.7037 18.4183H22.8148V15.2516H19.7037V18.4183ZM24.5925 28.3706H27.7037V25.204H24.5925V28.3706ZM24.5925 23.3945H27.7037V20.2278H24.5925V23.3945ZM24.5925 18.4183H27.7037V15.2516H24.5925V18.4183ZM29.4814 33.3468H32.5925V30.1801H29.4814V33.3468ZM29.4814 28.3706H32.5925V25.204H29.4814V28.3706Z" fill="white"/>
</svg>
