<svg width="48" height="48" viewBox="0 0 48 48" fill="none" xmlns="http://www.w3.org/2000/svg">
<circle cx="24" cy="24" r="24" fill="#72B3EA"/>
<path d="M23.4074 35.1563C23.1555 35.1563 22.9444 35.0691 22.774 34.8946C22.6037 34.7202 22.5185 34.5041 22.5185 34.2462C22.5185 33.9884 22.6037 33.774 22.774 33.6031C22.9444 33.4322 23.1555 33.3468 23.4074 33.3468H32.5925V24.1786C32.5925 23.0124 32.3456 21.8916 31.8518 20.8159C31.358 19.7402 30.6963 18.7902 29.8666 17.9659C29.037 17.1416 28.0888 16.4831 27.0222 15.9905C25.9555 15.4979 24.8493 15.2516 23.7037 15.2516C22.558 15.2516 21.4518 15.4979 20.3851 15.9905C19.3185 16.4831 18.3703 17.1416 17.5407 17.9659C16.7111 18.7902 16.0493 19.7402 15.5555 20.8159C15.0617 21.8916 14.8148 23.0124 14.8148 24.1786V30.9341C14.8148 31.105 14.758 31.2482 14.6444 31.3638C14.5308 31.4794 14.3901 31.5373 14.2222 31.5373C13.5703 31.5373 13.0123 31.301 12.5481 30.8285C12.0839 30.356 11.8518 29.7881 11.8518 29.1246V26.7119C11.8518 26.2495 11.9604 25.8423 12.1777 25.4905C12.395 25.1386 12.6814 24.8521 13.037 24.6309L13.1259 23.0325C13.3037 21.5648 13.7135 20.2379 14.3555 19.0516C14.9975 17.8654 15.7975 16.8601 16.7555 16.0358C17.7135 15.2114 18.7901 14.5731 19.9851 14.1207C21.1802 13.6683 22.4197 13.4421 23.7037 13.4421C25.0074 13.4421 26.2567 13.6683 27.4518 14.1207C28.6469 14.5731 29.7185 15.2165 30.6666 16.0509C31.6148 16.8852 32.4098 17.8905 33.0518 19.0667C33.6938 20.2429 34.1037 21.5548 34.2814 23.0024L34.3703 24.5706C34.7259 24.7516 35.0123 25.018 35.2296 25.3698C35.4469 25.7217 35.5555 26.1087 35.5555 26.5309V29.3055C35.5555 29.7478 35.4469 30.1399 35.2296 30.4817C35.0123 30.8235 34.7259 31.0849 34.3703 31.2658V33.3468C34.3703 33.8444 34.1963 34.2704 33.8481 34.6247C33.5 34.9791 33.0814 35.1563 32.5925 35.1563H23.4074ZM20.1481 26.4103C19.9111 26.4103 19.7037 26.3198 19.5259 26.1389C19.3481 25.9579 19.2592 25.7418 19.2592 25.4905C19.2592 25.2391 19.3481 25.028 19.5259 24.8571C19.7037 24.6862 19.916 24.6008 20.1629 24.6008C20.4098 24.6008 20.6172 24.6875 20.7851 24.8609C20.953 25.0343 21.037 25.2492 21.037 25.5055C21.037 25.7468 20.9518 25.9579 20.7814 26.1389C20.6111 26.3198 20.4 26.4103 20.1481 26.4103ZM27.2592 26.4103C27.0222 26.4103 26.8148 26.3198 26.637 26.1389C26.4592 25.9579 26.3703 25.7418 26.3703 25.4905C26.3703 25.2391 26.4592 25.028 26.637 24.8571C26.8148 24.6862 27.0271 24.6008 27.274 24.6008C27.5209 24.6008 27.7284 24.6875 27.8963 24.8609C28.0642 25.0343 28.1481 25.2492 28.1481 25.5055C28.1481 25.7468 28.0629 25.9579 27.8925 26.1389C27.7222 26.3198 27.5111 26.4103 27.2592 26.4103ZM16.6222 24.8421C16.5432 23.6558 16.7061 22.5802 17.1111 21.6151C17.516 20.65 18.0592 19.8307 18.7407 19.1572C19.4222 18.4836 20.2074 17.9659 21.0963 17.604C21.9851 17.2421 22.874 17.0612 23.7629 17.0612C25.5604 17.0612 27.0716 17.6392 28.2963 18.7953C29.5209 19.9514 30.2716 21.3939 30.5481 23.123C28.6913 23.1029 27.0567 22.5953 25.6444 21.6C24.2321 20.6048 23.1407 19.313 22.3703 17.7246C22.0543 19.3532 21.3876 20.7958 20.3703 22.0524C19.353 23.309 18.1037 24.2389 16.6222 24.8421Z" fill="white"/>
</svg>
