<svg width="18" height="18" viewBox="0 0 18 18" fill="none" xmlns="http://www.w3.org/2000/svg">
<path d="M7.77085 10.8958L5.72919 8.85413C5.60419 8.72913 5.45141 8.66663 5.27085 8.66663C5.0903 8.66663 4.93752 8.72913 4.81252 8.85413C4.67363 8.99301 4.60419 9.15621 4.60419 9.34371C4.60419 9.53121 4.66669 9.68746 4.79169 9.81246L7.33335 12.3541C7.44446 12.4652 7.5903 12.5208 7.77085 12.5208C7.95141 12.5208 8.09724 12.4652 8.20835 12.3541L13.2084 7.35413C13.3334 7.22913 13.3959 7.07635 13.3959 6.89579C13.3959 6.71524 13.3264 6.55551 13.1875 6.41663C13.0625 6.29163 12.9063 6.22913 12.7188 6.22913C12.5313 6.22913 12.3681 6.29857 12.2292 6.43746L7.77085 10.8958ZM9.00002 17.3333C7.81946 17.3333 6.72224 17.1215 5.70835 16.6979C4.69446 16.2743 3.81252 15.6875 3.06252 14.9375C2.31252 14.1875 1.72571 13.3055 1.3021 12.2916C0.878493 11.2777 0.666687 10.1805 0.666687 8.99996C0.666687 7.83329 0.878493 6.74301 1.3021 5.72913C1.72571 4.71524 2.31252 3.83329 3.06252 3.08329C3.81252 2.33329 4.69446 1.74301 5.70835 1.31246C6.72224 0.881904 7.81946 0.666626 9.00002 0.666626C10.1667 0.666626 11.257 0.881904 12.2709 1.31246C13.2847 1.74301 14.1667 2.33329 14.9167 3.08329C15.6667 3.83329 16.257 4.71524 16.6875 5.72913C17.1181 6.74301 17.3334 7.83329 17.3334 8.99996C17.3334 10.1805 17.1181 11.2777 16.6875 12.2916C16.257 13.3055 15.6667 14.1875 14.9167 14.9375C14.1667 15.6875 13.2847 16.2743 12.2709 16.6979C11.257 17.1215 10.1667 17.3333 9.00002 17.3333Z" fill="#203253"/>
</svg>
