<svg width="25" height="24" viewBox="0 0 25 24" fill="none" xmlns="http://www.w3.org/2000/svg">
<path d="M15.4965 5.17507C15.1075 5.17507 14.7733 5.03422 14.494 4.75254C14.2147 4.47086 14.075 4.13552 14.075 3.74654C14.075 3.35756 14.2158 3.0234 14.4975 2.74407C14.7792 2.46473 15.1145 2.32507 15.5035 2.32507C15.8925 2.32507 16.2267 2.46591 16.506 2.74759C16.7853 3.02927 16.925 3.36461 16.925 3.75359C16.925 4.14257 16.7842 4.47673 16.5025 4.75607C16.2208 5.0354 15.8855 5.17507 15.4965 5.17507ZM15.4965 21.6751C15.1075 21.6751 14.7733 21.5342 14.494 21.2525C14.2147 20.9709 14.075 20.6355 14.075 20.2465C14.075 19.8576 14.2158 19.5234 14.4975 19.2441C14.7792 18.9647 15.1145 18.8251 15.5035 18.8251C15.8925 18.8251 16.2267 18.9659 16.506 19.2476C16.7853 19.5293 16.925 19.8646 16.925 20.2536C16.925 20.6426 16.7842 20.9767 16.5025 21.2561C16.2208 21.5354 15.8855 21.6751 15.4965 21.6751ZM19.4965 8.67507C19.1075 8.67507 18.7733 8.53422 18.494 8.25254C18.2147 7.97086 18.075 7.63552 18.075 7.24654C18.075 6.85756 18.2158 6.5234 18.4975 6.24407C18.7792 5.96473 19.1145 5.82507 19.5035 5.82507C19.8925 5.82507 20.2267 5.96591 20.506 6.24759C20.7853 6.52927 20.925 6.86461 20.925 7.25359C20.925 7.64257 20.7842 7.97673 20.5025 8.25607C20.2208 8.5354 19.8855 8.67507 19.4965 8.67507ZM19.4965 18.1751C19.1075 18.1751 18.7733 18.0342 18.494 17.7525C18.2147 17.4709 18.075 17.1355 18.075 16.7465C18.075 16.3576 18.2158 16.0234 18.4975 15.7441C18.7792 15.4647 19.1145 15.3251 19.5035 15.3251C19.8925 15.3251 20.2267 15.4659 20.506 15.7476C20.7853 16.0293 20.925 16.3646 20.925 16.7536C20.925 17.1426 20.7842 17.4767 20.5025 17.7561C20.2208 18.0354 19.8855 18.1751 19.4965 18.1751ZM20.9965 13.4251C20.6075 13.4251 20.2733 13.2842 19.994 13.0025C19.7147 12.7209 19.575 12.3855 19.575 11.9965C19.575 11.6076 19.7158 11.2734 19.9975 10.9941C20.2792 10.7147 20.6145 10.5751 21.0035 10.5751C21.3925 10.5751 21.7267 10.7159 22.006 10.9976C22.2853 11.2793 22.425 11.6146 22.425 12.0036C22.425 12.3926 22.2842 12.7267 22.0025 13.0061C21.7208 13.2854 21.3855 13.4251 20.9965 13.4251ZM1.875 12.0001C1.875 9.31673 2.75833 6.9959 4.525 5.03757C6.29167 3.07923 8.49167 1.9584 11.125 1.67507C11.425 1.6584 11.6875 1.76242 11.9125 1.98712C12.1375 2.21182 12.25 2.48518 12.25 2.80722C12.25 3.11912 12.1588 3.39397 11.9764 3.63179C11.7939 3.86961 11.5601 4.01737 11.275 4.07507C9.29167 4.3084 7.625 5.17201 6.275 6.66589C4.925 8.15977 4.25 9.93861 4.25 12.0024C4.25 14.0459 4.925 15.8188 6.275 17.3213C7.625 18.8238 9.29167 19.6917 11.275 19.9251C11.5601 19.983 11.7939 20.1316 11.9764 20.3709C12.1588 20.6102 12.25 20.8866 12.25 21.2001C12.25 21.5178 12.139 21.7889 11.917 22.0134C11.695 22.2378 11.431 22.3334 11.125 22.3001C8.50833 22.0334 6.3125 20.9209 4.5375 18.9626C2.7625 17.0042 1.875 14.6834 1.875 12.0001ZM12.2478 14.1751C11.6405 14.1751 11.1266 13.9642 10.7059 13.5426C10.2853 13.1209 10.075 12.6067 10.075 12.0001C10.075 11.9292 10.0792 11.8532 10.0875 11.7719C10.0958 11.6907 10.1083 11.614 10.125 11.5417L8.8 10.2251C8.56667 9.99173 8.45 9.7209 8.45 9.41257C8.45 9.10423 8.575 8.82507 8.825 8.57507C9.05833 8.34173 9.33333 8.22923 9.65 8.23757C9.96667 8.2459 10.2417 8.3584 10.475 8.57507L11.8216 9.87507C11.9072 9.84173 12.05 9.82507 12.25 9.82507C12.8567 9.82507 13.3708 10.0361 13.7925 10.4582C14.2142 10.8803 14.425 11.395 14.425 12.0023C14.425 12.6096 14.214 13.1235 13.7919 13.5441C13.3698 13.9648 12.8551 14.1751 12.2478 14.1751Z" fill="#203253"/>
</svg>
