<svg width="48" height="48" viewBox="0 0 48 48" fill="none" xmlns="http://www.w3.org/2000/svg">
<circle cx="24" cy="24" r="24" fill="#72B3EA"/>
<path d="M19.8222 31.1112H27.5851C27.837 31.1112 28.0481 31.0256 28.2185 30.8542C28.3888 30.6828 28.474 30.4705 28.474 30.2172C28.474 29.9638 28.3888 29.7532 28.2185 29.5853C28.0481 29.4174 27.837 29.3335 27.5851 29.3335H19.8222C19.5703 29.3335 19.3592 29.4191 19.1888 29.5905C19.0185 29.7619 18.9333 29.9742 18.9333 30.2275C18.9333 30.4809 19.0185 30.6915 19.1888 30.8594C19.3592 31.0273 19.5703 31.1112 19.8222 31.1112ZM19.8222 26.0742H27.5851C27.837 26.0742 28.0481 25.9885 28.2185 25.8172C28.3888 25.6458 28.474 25.4334 28.474 25.1801C28.474 24.9268 28.3888 24.7162 28.2185 24.5483C28.0481 24.3804 27.837 24.2964 27.5851 24.2964H19.8222C19.5703 24.2964 19.3592 24.3821 19.1888 24.5535C19.0185 24.7248 18.9333 24.9372 18.9333 25.1905C18.9333 25.4438 19.0185 25.6545 19.1888 25.8224C19.3592 25.9903 19.5703 26.0742 19.8222 26.0742ZM16 36.1483C15.5259 36.1483 15.1111 35.9705 14.7555 35.615C14.4 35.2594 14.2222 34.8446 14.2222 34.3705V14.2224C14.2222 13.7483 14.4 13.3335 14.7555 12.9779C15.1111 12.6224 15.5259 12.4446 16 12.4446H25.9555C26.2013 12.4446 26.4356 12.494 26.6584 12.5927C26.8812 12.6915 27.0716 12.8199 27.2296 12.9779L32.6518 18.4001C32.8098 18.5582 32.9382 18.7486 33.037 18.9713C33.1358 19.1941 33.1851 19.4284 33.1851 19.6742V34.3705C33.1851 34.8446 33.0074 35.2594 32.6518 35.615C32.2963 35.9705 31.8814 36.1483 31.4074 36.1483H16ZM25.8074 18.8446C25.8074 19.0964 25.8926 19.3075 26.0629 19.4779C26.2333 19.6483 26.4444 19.7335 26.6963 19.7335H31.4074L25.8074 14.2224V18.8446Z" fill="white"/>
</svg>
