<svg width="72" height="73" viewBox="0 0 72 73" fill="none" xmlns="http://www.w3.org/2000/svg">
<circle cx="36" cy="36.5" r="36" fill="#72B3EA"/>
<path d="M36.4444 55.7445C33.8311 55.7445 31.3851 55.2556 29.1066 54.2779C26.8281 53.3001 24.837 51.9593 23.1333 50.2556C21.4296 48.5519 20.0889 46.5608 19.1111 44.2824C18.1333 42.0039 17.6444 39.5579 17.6444 36.9445C17.6444 34.3371 18.1333 31.8927 19.1111 29.6112C20.0889 27.3297 21.4296 25.3371 23.1333 23.6334C24.837 21.9297 26.8281 20.589 29.1066 19.6112C31.3851 18.6334 33.8311 18.1445 36.4444 18.1445C39.0519 18.1445 41.4963 18.6334 43.7778 19.6112C46.0593 20.589 48.0519 21.9297 49.7556 23.6334C51.4593 25.3371 52.8 27.3297 53.7778 29.6112C54.7556 31.8927 55.2444 34.3432 55.2444 36.9628V39.3001C55.2444 41.226 54.6 42.7742 53.3111 43.9445C52.0222 45.1149 50.4 45.7001 48.4444 45.7001C47.2623 45.7001 46.1742 45.4186 45.18 44.8556C44.1859 44.2927 43.4519 43.5223 42.9778 42.5445C42.2667 43.6408 41.3407 44.4408 40.2 44.9445C39.0593 45.4482 37.8074 45.7001 36.4444 45.7001C34.0047 45.7001 31.9282 44.8561 30.2147 43.1683C28.5012 41.4804 27.6444 39.3989 27.6444 36.9238C27.6444 34.4784 28.5002 32.3964 30.2116 30.6779C31.9229 28.9593 33.997 28.1001 36.4338 28.1001C38.9002 28.1001 40.9852 28.9519 42.6889 30.6556C44.3926 32.3593 45.2444 34.4556 45.2444 36.9445V38.986C45.2444 39.8443 45.5556 40.5705 46.1778 41.1645C46.8 41.7586 47.5556 42.0556 48.4444 42.0556C49.3037 42.0556 50.037 41.7586 50.6444 41.1645C51.2519 40.5705 51.5556 39.8443 51.5556 38.986V36.9445C51.5556 32.7075 50.0963 29.1297 47.1778 26.2112C44.2593 23.2927 40.6741 21.8334 36.4222 21.8334C32.2296 21.8334 28.6667 23.3001 25.7333 26.2334C22.8 29.1668 21.3333 32.7371 21.3333 36.9445C21.3333 41.1816 22.7926 44.7593 25.7111 47.6779C28.6296 50.5964 32.2074 52.0556 36.4444 52.0556H44.1333C44.6459 52.0556 45.0778 52.2333 45.4289 52.5886C45.78 52.9439 45.9556 53.3809 45.9556 53.8997C45.9556 54.4185 45.78 54.8556 45.4289 55.2112C45.0778 55.5668 44.6459 55.7445 44.1333 55.7445H36.4444ZM36.4549 42.0556C37.8702 42.0556 39.0815 41.5589 40.0889 40.5655C41.0963 39.572 41.6 38.372 41.6 36.9655C41.6 35.5293 41.0928 34.3001 40.0784 33.2779C39.064 32.2556 37.8492 31.7445 36.434 31.7445C35.0187 31.7445 33.8074 32.2556 32.8 33.2779C31.7926 34.3001 31.2889 35.5293 31.2889 36.9655C31.2889 38.372 31.7961 39.572 32.8104 40.5655C33.8248 41.5589 35.0397 42.0556 36.4549 42.0556Z" fill="white"/>
</svg>
