<svg width="22" height="22" viewBox="0 0 22 22" fill="none" xmlns="http://www.w3.org/2000/svg">
<path d="M3.20833 18.3332C2.84166 18.3332 2.52083 18.1957 2.24583 17.9207C1.97083 17.6457 1.83333 17.3248 1.83333 16.9582V5.0415C1.83333 4.67484 1.97083 4.354 2.24583 4.079C2.52083 3.804 2.84166 3.6665 3.20833 3.6665H18.7917C19.1583 3.6665 19.4792 3.804 19.7542 4.079C20.0292 4.354 20.1667 4.67484 20.1667 5.0415V16.9582C20.1667 17.3248 20.0292 17.6457 19.7542 17.9207C19.4792 18.1957 19.1583 18.3332 18.7917 18.3332H3.20833ZM11 11.4123L18.7917 6.30192V5.0415L11 10.0373L3.20833 5.0415V6.30192L11 11.4123Z" fill="#203253"/>
</svg>
