<svg width="48" height="48" viewBox="0 0 48 48" fill="none" xmlns="http://www.w3.org/2000/svg">
<circle cx="24" cy="24" r="24" fill="#72B3EA"/>
<path d="M14.8148 34.5483C14.3259 34.5483 13.9074 34.3742 13.5592 34.0261C13.2111 33.6779 13.037 33.2594 13.037 32.7705V15.5261C13.037 15.0372 13.1901 14.6187 13.4962 14.2705C13.8024 13.9224 14.0641 13.7483 14.2814 13.7483H20.2666C20.4049 13.0569 20.7456 12.489 21.2888 12.0446C21.832 11.6002 22.4592 11.3779 23.1703 11.3779C23.8814 11.3779 24.5086 11.6002 25.0518 12.0446C25.595 12.489 25.9358 13.0569 26.074 13.7483H32.0592C32.5481 13.7483 32.9666 13.9224 33.3148 14.2705C33.6629 14.6187 33.837 15.0372 33.837 15.5261V22.815H32.0592V15.5261H28.9185V17.6002C28.9185 18.089 28.7444 18.5076 28.3962 18.8557C28.0481 19.2039 27.6296 19.3779 27.1407 19.3779H19.7333C19.2444 19.3779 18.8259 19.2039 18.4777 18.8557C18.1296 18.5076 17.9555 18.089 17.9555 17.6002V15.5261H14.8148V32.7705H22.2222V34.5483H14.8148ZM34.874 36.7113L31.9407 33.7779C31.5456 34.094 31.0962 34.3211 30.5925 34.4594C30.0888 34.5977 29.5703 34.6668 29.037 34.6668C27.6378 34.6668 26.4485 34.1768 25.4691 33.1967C24.4897 32.2166 24 31.0264 24 29.6263C24 28.2261 24.49 27.0372 25.4701 26.0594C26.4502 25.0816 27.6403 24.5927 29.0405 24.5927C30.4406 24.5927 31.6296 25.0825 32.6074 26.0619C33.5851 27.0413 34.074 28.2306 34.074 29.6298C34.074 30.1631 34.0049 30.6816 33.8666 31.1853C33.7283 31.689 33.5012 32.1384 33.1851 32.5335L36.1185 35.4668C36.2962 35.6446 36.3851 35.852 36.3851 36.089C36.3851 36.3261 36.2962 36.5335 36.1185 36.7113C35.9407 36.889 35.7333 36.9779 35.4962 36.9779C35.2592 36.9779 35.0518 36.889 34.874 36.7113ZM29.037 32.889C29.9654 32.889 30.7407 32.5779 31.3629 31.9557C31.9851 31.3335 32.2962 30.5582 32.2962 29.6298C32.2962 28.7014 31.9851 27.9261 31.3629 27.3039C30.7407 26.6816 29.9654 26.3705 29.037 26.3705C28.1086 26.3705 27.3333 26.6816 26.7111 27.3039C26.0888 27.9261 25.7777 28.7014 25.7777 29.6298C25.7777 30.5582 26.0888 31.3335 26.7111 31.9557C27.3333 32.5779 28.1086 32.889 29.037 32.889ZM23.7037 15.4076C24.0395 15.4076 24.3209 15.294 24.5481 15.0668C24.7753 14.8397 24.8888 14.5582 24.8888 14.2224C24.8888 13.8866 24.7753 13.6051 24.5481 13.3779C24.3209 13.1508 24.0395 13.0372 23.7037 13.0372C23.3679 13.0372 23.0864 13.1508 22.8592 13.3779C22.632 13.6051 22.5185 13.8866 22.5185 14.2224C22.5185 14.5582 22.632 14.8397 22.8592 15.0668C23.0864 15.294 23.3679 15.4076 23.7037 15.4076Z" fill="white"/>
</svg>
