<svg width="25" height="24" viewBox="0 0 25 24" fill="none" xmlns="http://www.w3.org/2000/svg">
<path d="M12.2438 11.9C12.7646 11.9 13.2125 11.7145 13.5875 11.3437C13.9625 10.9728 14.15 10.527 14.15 10.0062C14.15 9.48535 13.9646 9.03745 13.5937 8.66245C13.2228 8.28745 12.777 8.09995 12.2562 8.09995C11.7354 8.09995 11.2875 8.28539 10.9125 8.65625C10.5375 9.02712 10.35 9.47295 10.35 9.99375C10.35 10.5146 10.5354 10.9625 10.9063 11.3375C11.2772 11.7125 11.723 11.9 12.2438 11.9ZM12.25 19.45C14.3226 17.5444 15.8533 15.8161 16.842 14.2652C17.8307 12.7142 18.325 11.3565 18.325 10.1919C18.325 8.35559 17.7392 6.85203 16.5674 5.6812C15.3957 4.51037 13.9584 3.92495 12.2557 3.92495C10.5529 3.92495 9.11372 4.51088 7.93824 5.68275C6.76275 6.8546 6.17501 8.35948 6.17501 10.1974C6.17501 11.3658 6.68206 12.7213 7.69616 14.2639C8.71026 15.8065 10.2282 17.5352 12.25 19.45ZM12.2563 22.025C12.0688 22.025 11.8875 21.9958 11.7125 21.9375C11.5375 21.8791 11.3833 21.7916 11.25 21.675C8.75001 19.4425 6.88751 17.3811 5.66251 15.4907C4.43751 13.6004 3.82501 11.8368 3.82501 10.2C3.82501 7.57038 4.67167 5.47549 6.36499 3.91528C8.0583 2.35506 10.0192 1.57495 12.2477 1.57495C14.4762 1.57495 16.4379 2.35506 18.1327 3.91528C19.8276 5.47549 20.675 7.57038 20.675 10.2C20.675 11.8333 20.0625 13.596 18.8375 15.4881C17.6125 17.3802 15.75 19.4425 13.25 21.675C13.1167 21.7916 12.9646 21.8791 12.7938 21.9375C12.6229 21.9958 12.4438 22.025 12.2563 22.025Z" fill="#203253"/>
</svg>
