<svg width="72" height="73" viewBox="0 0 72 73" fill="none" xmlns="http://www.w3.org/2000/svg">
<circle cx="36" cy="36.5" r="36" fill="#72B3EA"/>
<path d="M27.1556 57.5223C25.9985 57.5223 25.013 57.1153 24.1989 56.3014C23.3848 55.4871 22.9778 54.5015 22.9778 53.3445V20.5445C22.9778 19.3874 23.3848 18.4019 24.1989 17.5878C25.013 16.7737 25.9985 16.3667 27.1556 16.3667H45.7333C46.8904 16.3667 47.8759 16.7737 48.69 17.5878C49.5041 18.4019 49.9111 19.3874 49.9111 20.5445V53.3445C49.9111 54.5015 49.5041 55.4871 48.69 56.3014C47.8759 57.1153 46.8904 57.5223 45.7333 57.5223H27.1556ZM27.1556 49.3445H45.7333V24.5445H27.1556V49.3445Z" fill="white"/>
</svg>
