<svg width="48" height="48" viewBox="0 0 48 48" fill="none" xmlns="http://www.w3.org/2000/svg">
<circle cx="24" cy="24" r="24" fill="#72B3EA"/>
<path d="M25.4814 25.0384C26.4691 25.0384 27.3086 24.6865 28 23.9828C28.6913 23.2791 29.037 22.4246 29.037 21.4193C29.037 20.4141 28.6913 19.5596 28 18.8559C27.3086 18.1522 26.4691 17.8003 25.4814 17.8003C24.4938 17.8003 23.6543 18.1522 22.9629 18.8559C22.2716 19.5596 21.9259 20.4141 21.9259 21.4193C21.9259 22.4246 22.2716 23.2791 22.9629 23.9828C23.6543 24.6865 24.4938 25.0384 25.4814 25.0384ZM16 29.2606C15.5111 29.2606 15.0926 29.0834 14.7444 28.729C14.3963 28.3746 14.2222 27.9487 14.2222 27.451V15.3876C14.2222 14.89 14.3963 14.464 14.7444 14.1097C15.0926 13.7553 15.5111 13.5781 16 13.5781H34.9629C35.4518 13.5781 35.8703 13.7553 36.2185 14.1097C36.5666 14.464 36.7407 14.89 36.7407 15.3876V27.451C36.7407 27.9487 36.5666 28.3746 36.2185 28.729C35.8703 29.0834 35.4518 29.2606 34.9629 29.2606H16ZM12.4444 32.8796C11.9555 32.8796 11.537 32.7024 11.1889 32.348C10.8407 31.9937 10.6666 31.5677 10.6666 31.0701V18.1019C10.6666 17.8456 10.7523 17.6307 10.9237 17.4573C11.095 17.2839 11.3074 17.1971 11.5607 17.1971C11.814 17.1971 12.0247 17.2839 12.1926 17.4573C12.3605 17.6307 12.4444 17.8456 12.4444 18.1019V31.0701H32.2963C32.5481 31.0701 32.7592 31.1573 32.9296 31.3317C33.1 31.5061 33.1851 31.7223 33.1851 31.9801C33.1851 32.238 33.1 32.4523 32.9296 32.6232C32.7592 32.7941 32.5481 32.8796 32.2963 32.8796H12.4444ZM16 18.4035C16.8296 18.4035 17.5308 18.112 18.1037 17.5289C18.6765 16.9458 18.9629 16.2321 18.9629 15.3876H16V18.4035ZM34.9629 18.4035V15.3876H32C32 16.2321 32.2864 16.9458 32.8592 17.5289C33.4321 18.112 34.1333 18.4035 34.9629 18.4035ZM16 27.451H18.9629C18.9629 26.6066 18.6765 25.8929 18.1037 25.3098C17.5308 24.7267 16.8296 24.4352 16 24.4352V27.451ZM32 27.451H34.9629V24.4352C34.1333 24.4352 33.4321 24.7267 32.8592 25.3098C32.2864 25.8929 32 26.6066 32 27.451Z" fill="white"/>
</svg>
