<svg width="48" height="48" viewBox="0 0 48 48" fill="none" xmlns="http://www.w3.org/2000/svg">
<circle cx="24" cy="24" r="24" fill="#72B3EA"/>
<path d="M23.7037 23.8625C22.4 23.8625 21.3333 23.4403 20.5037 22.5958C19.674 21.7514 19.2592 20.6657 19.2592 19.3387C19.2592 18.0117 19.674 16.926 20.5037 16.0816C21.3333 15.2372 22.4 14.8149 23.7037 14.8149C25.0074 14.8149 26.074 15.2372 26.9037 16.0816C27.7333 16.926 28.1481 18.0117 28.1481 19.3387C28.1481 20.6657 27.7333 21.7514 26.9037 22.5958C26.074 23.4403 25.0074 23.8625 23.7037 23.8625ZM16 33.5434C15.5061 33.5434 15.0864 33.3675 14.7407 33.0156C14.395 32.6638 14.2222 32.2365 14.2222 31.7339V30.7085C14.2222 29.9445 14.4098 29.291 14.7851 28.7482C15.1605 28.2053 15.6444 27.7932 16.237 27.5117C17.5605 26.9085 18.8296 26.4561 20.0444 26.1545C21.2592 25.853 22.479 25.7022 23.7037 25.7022C24.9284 25.7022 26.1432 25.858 27.3481 26.1696C28.5531 26.4813 29.8172 26.9286 31.1407 27.5117C31.7531 27.7932 32.2469 28.2053 32.6222 28.7482C32.9975 29.291 33.1852 29.9445 33.1852 30.7085V31.7339C33.1852 32.2365 33.0123 32.6638 32.6666 33.0156C32.321 33.3675 31.9012 33.5434 31.4074 33.5434H16Z" fill="white"/>
</svg>
