<svg width="64" height="64" viewBox="0 0 64 64" fill="none" xmlns="http://www.w3.org/2000/svg">
<circle cx="32" cy="32" r="32" fill="#72B3EA"/>
<path d="M18.6074 46.6174C18.265 46.6174 17.9819 46.5055 17.758 46.2816C17.5341 46.0577 17.4222 45.7746 17.4222 45.4322C17.4222 45.0898 17.5341 44.8067 17.758 44.5828C17.9819 44.359 18.265 44.247 18.6074 44.247H44.6815C45.0239 44.247 45.307 44.359 45.5308 44.5828C45.7547 44.8067 45.8667 45.0898 45.8667 45.4322C45.8667 45.7746 45.7547 46.0577 45.5308 46.2816C45.307 46.5055 45.0239 46.6174 44.6815 46.6174H18.6074ZM20.7802 38.1631C20.5169 38.2421 20.2601 38.2289 20.0099 38.1236C19.7597 38.0182 19.5687 37.847 19.437 37.61L16.4741 32.5532C16.2897 32.2635 16.2568 31.987 16.3753 31.7236C16.4938 31.4602 16.7243 31.3022 17.0666 31.2495C17.1983 31.2232 17.3432 31.2363 17.5012 31.289C17.6592 31.3417 17.7909 31.4075 17.8963 31.4866L20.3062 33.6199L29.2346 31.21L23.3086 21.294C23.0716 20.8989 23.0255 20.517 23.1704 20.1483C23.3152 19.7796 23.6115 19.5293 24.0592 19.3977C24.2699 19.345 24.4938 19.345 24.7308 19.3977C24.9679 19.4503 25.1654 19.5425 25.3234 19.6742L36.0296 29.3532L44.5629 27.0619C45.2741 26.8512 45.9193 26.9763 46.4988 27.4372C47.0782 27.8981 47.3679 28.5104 47.3679 29.2742C47.3679 29.7746 47.2164 30.2224 46.9136 30.6174C46.6107 31.0125 46.2222 31.2759 45.7481 31.4075L20.7802 38.1631Z" fill="white"/>
</svg>
