<svg width="18" height="18" viewBox="0 0 18 18" fill="none" xmlns="http://www.w3.org/2000/svg">
<path d="M9 13.7063L5.5125 15.8063C5.4125 15.8688 5.30625 15.897 5.19375 15.8907C5.08125 15.8845 4.98125 15.8501 4.89375 15.7876C4.80625 15.7251 4.74063 15.6438 4.69688 15.5438C4.65313 15.4438 4.64375 15.3313 4.66875 15.2063L5.5875 11.2313L2.5125 8.5501C2.4125 8.4626 2.35313 8.36572 2.33438 8.25947C2.31563 8.15322 2.31875 8.0501 2.34375 7.9501C2.36875 7.8501 2.425 7.76572 2.5125 7.69697C2.6 7.62822 2.70625 7.5876 2.83125 7.5751L6.9 7.21885L8.475 3.46885C8.525 3.35635 8.6 3.27197 8.7 3.21572C8.8 3.15947 8.9 3.13135 9 3.13135C9.1 3.13135 9.2 3.15947 9.3 3.21572C9.4 3.27197 9.475 3.35635 9.525 3.46885L11.1 7.21885L15.1688 7.5751C15.2938 7.5876 15.4 7.62822 15.4875 7.69697C15.575 7.76572 15.6313 7.8501 15.6563 7.9501C15.6813 8.0501 15.6844 8.15322 15.6656 8.25947C15.6469 8.36572 15.5875 8.4626 15.4875 8.5501L12.4125 11.2313L13.3313 15.2063C13.3563 15.3313 13.3469 15.4438 13.3031 15.5438C13.2594 15.6438 13.1938 15.7251 13.1063 15.7876C13.0188 15.8501 12.9188 15.8845 12.8063 15.8907C12.6938 15.897 12.5875 15.8688 12.4875 15.8063L9 13.7063Z" fill="#72B3EA"/>
</svg>
