<svg width="48" height="48" viewBox="0 0 48 48" fill="none" xmlns="http://www.w3.org/2000/svg">
<circle cx="24" cy="24" r="24" fill="#72B3EA"/>
<path d="M19.9111 30.9038H21.6888V20.7102H18.4296V22.5197H19.9111V30.9038ZM25.0666 30.9038H27.2296C27.7432 30.9038 28.1679 30.7329 28.5037 30.3911C28.8395 30.0493 29.0074 29.617 29.0074 29.0943V22.5197C29.0074 21.9969 28.8395 21.5647 28.5037 21.2229C28.1679 20.8811 27.7432 20.7102 27.2296 20.7102H25.0666C24.553 20.7102 24.1283 20.8811 23.7925 21.2229C23.4567 21.5647 23.2888 21.9969 23.2888 22.5197V29.0943C23.2888 29.617 23.4567 30.0493 23.7925 30.3911C24.1283 30.7329 24.553 30.9038 25.0666 30.9038ZM25.0666 29.0943V22.5197H27.2296V29.0943H25.0666ZM20.1481 12.8388V11.0293H27.2592V12.8388H20.1481ZM23.7037 36.3323C22.2419 36.3323 20.8641 36.0458 19.5703 35.4728C18.2765 34.8998 17.1456 34.1207 16.1777 33.1355C15.2098 32.1503 14.4444 30.9993 13.8814 29.6823C13.3185 28.3654 13.037 26.963 13.037 25.4752C13.037 23.9874 13.3185 22.585 13.8814 21.2681C14.4444 19.9512 15.2098 18.8001 16.1777 17.815C17.1456 16.8298 18.2765 16.0507 19.5703 15.4777C20.8641 14.9047 22.2419 14.6182 23.7037 14.6182C25.0271 14.6182 26.2666 14.8393 27.4222 15.2816C28.5777 15.724 29.6098 16.3472 30.5185 17.1515L32.0296 15.6134L33.3037 16.9102L31.7925 18.4483C32.5037 19.2525 33.1111 20.2276 33.6148 21.3737C34.1185 22.5197 34.3703 23.8869 34.3703 25.4752C34.3703 26.963 34.0888 28.3654 33.5259 29.6823C32.9629 30.9993 32.1975 32.1503 31.2296 33.1355C30.2617 34.1207 29.1308 34.8998 27.837 35.4728C26.5432 36.0458 25.1654 36.3323 23.7037 36.3323ZM23.7037 34.5228C26.1728 34.5228 28.2716 33.6432 29.9999 31.8839C31.7283 30.1247 32.5925 27.9884 32.5925 25.4752C32.5925 22.962 31.7283 20.8258 29.9999 19.0665C28.2716 17.3073 26.1728 16.4277 23.7037 16.4277C21.2345 16.4277 19.1358 17.3073 17.4074 19.0665C15.679 20.8258 14.8148 22.962 14.8148 25.4752C14.8148 27.9884 15.679 30.1247 17.4074 31.8839C19.1358 33.6432 21.2345 34.5228 23.7037 34.5228Z" fill="white"/>
</svg>
