<svg width="72" height="72" viewBox="0 0 72 72" fill="none" xmlns="http://www.w3.org/2000/svg">
<circle cx="36" cy="36" r="36" fill="#72B3EA"/>
<path d="M27.0222 52.4001C26.5185 52.2519 26.1926 51.9186 26.0444 51.4001C25.8963 50.8816 26.0148 50.4297 26.4 50.0445L27.5556 48.889C25.8074 48.889 24.3333 48.289 23.1333 47.089C21.9333 45.889 21.3333 44.4149 21.3333 42.6667V25.7779C21.3333 24.563 21.6148 23.5038 22.1778 22.6001C22.7407 21.6964 23.6074 20.9556 24.7778 20.3779C25.9482 19.8001 27.4296 19.3705 29.2222 19.089C31.0148 18.8075 33.1259 18.6667 35.5556 18.6667C38.1037 18.6667 40.2741 18.8001 42.0667 19.0667C43.8593 19.3334 45.3259 19.7556 46.4667 20.3334C47.6074 20.9112 48.4444 21.6445 48.9778 22.5334C49.5111 23.4223 49.7778 24.5038 49.7778 25.7779V42.6667C49.7778 44.4149 49.1778 45.889 47.9778 47.089C46.7778 48.289 45.3037 48.889 43.5556 48.889L44.7111 50.0445C45.0963 50.4297 45.2148 50.8816 45.0667 51.4001C44.9185 51.9186 44.5926 52.2519 44.0889 52.4001C43.8519 52.4593 43.6074 52.4593 43.3556 52.4001C43.1037 52.3408 42.8889 52.2223 42.7111 52.0445L39.5556 48.889H31.5556L28.4 52.0445C28.2222 52.2223 28.0074 52.3408 27.7556 52.4001C27.5037 52.4593 27.2593 52.4593 27.0222 52.4001ZM24 33.5556H34.4V26.6667H24V33.5556ZM37.0667 33.5556H47.1111V26.6667H37.0667V33.5556ZM29.1111 43.7779C29.7926 43.7779 30.3704 43.5408 30.8444 43.0667C31.3185 42.5927 31.5556 42.0149 31.5556 41.3334C31.5556 40.6519 31.3185 40.0742 30.8444 39.6001C30.3704 39.126 29.7926 38.889 29.1111 38.889C28.4296 38.889 27.8519 39.126 27.3778 39.6001C26.9037 40.0742 26.6667 40.6519 26.6667 41.3334C26.6667 42.0149 26.9037 42.5927 27.3778 43.0667C27.8519 43.5408 28.4296 43.7779 29.1111 43.7779ZM42 43.7779C42.6815 43.7779 43.2593 43.5408 43.7333 43.0667C44.2074 42.5927 44.4444 42.0149 44.4444 41.3334C44.4444 40.6519 44.2074 40.0742 43.7333 39.6001C43.2593 39.126 42.6815 38.889 42 38.889C41.3185 38.889 40.7407 39.126 40.2667 39.6001C39.7926 40.0742 39.5556 40.6519 39.5556 41.3334C39.5556 42.0149 39.7926 42.5927 40.2667 43.0667C40.7407 43.5408 41.3185 43.7779 42 43.7779Z" fill="white"/>
</svg>
