<svg width="48" height="48" viewBox="0 0 48 48" fill="none" xmlns="http://www.w3.org/2000/svg">
<circle cx="24" cy="24" r="24" fill="#72B3EA"/>
<path d="M33.4814 30.5928H16C15.5111 30.5928 15.0925 30.4156 14.7444 30.0612C14.3963 29.7069 14.2222 29.2809 14.2222 28.7833V14.9103H12.7407C12.4888 14.9103 12.2777 14.8231 12.1074 14.6487C11.937 14.4743 11.8518 14.2581 11.8518 14.0003C11.8518 13.7425 11.937 13.5281 12.1074 13.3572C12.2777 13.1863 12.4888 13.1008 12.7407 13.1008H14.2222C14.7111 13.1008 15.1296 13.278 15.4777 13.6324C15.8259 13.9867 16 14.4127 16 14.9103V28.7833H33.4814C33.7333 28.7833 33.9444 28.8705 34.1148 29.0449C34.2851 29.2193 34.3703 29.4355 34.3703 29.6933C34.3703 29.9511 34.2851 30.1655 34.1148 30.3364C33.9444 30.5073 33.7333 30.5928 33.4814 30.5928ZM15.9737 36.0213C15.4776 36.0213 15.0617 35.8436 14.7259 35.4882C14.3901 35.1328 14.2222 34.7055 14.2222 34.2065C14.2222 33.7074 14.3901 33.2819 14.7259 32.9301C15.0617 32.5782 15.4776 32.4023 15.9737 32.4023C16.4698 32.4023 16.8945 32.58 17.2478 32.9354C17.6011 33.2908 17.7777 33.718 17.7777 34.2171C17.7777 34.7162 17.6011 35.1417 17.2478 35.4935C16.8945 35.8454 16.4698 36.0213 15.9737 36.0213ZM18.9629 26.6722C18.7111 26.6722 18.5 26.5855 18.3296 26.412C18.1592 26.2386 18.074 26.0238 18.074 25.7674V20.942C18.074 20.6857 18.1592 20.4708 18.3296 20.2974C18.5 20.124 18.7111 20.0373 18.9629 20.0373H23.7037C23.9555 20.0373 24.1666 20.124 24.337 20.2974C24.5074 20.4708 24.5925 20.6857 24.5925 20.942V25.7674C24.5925 26.0238 24.5074 26.2386 24.337 26.412C24.1666 26.5855 23.9555 26.6722 23.7037 26.6722H18.9629ZM27.2592 26.6722C27.0074 26.6722 26.7963 26.5855 26.6259 26.412C26.4555 26.2386 26.3703 26.0238 26.3703 25.7674V20.942C26.3703 20.6857 26.4555 20.4708 26.6259 20.2974C26.7963 20.124 27.0074 20.0373 27.2592 20.0373H32C32.2518 20.0373 32.4629 20.124 32.6333 20.2974C32.8037 20.4708 32.8888 20.6857 32.8888 20.942V25.7674C32.8888 26.0238 32.8037 26.2386 32.6333 26.412C32.4629 26.5855 32.2518 26.6722 32 26.6722H27.2592ZM32.5873 36.0213C32.097 36.0213 31.679 35.8436 31.3333 35.4882C30.9876 35.1328 30.8148 34.7055 30.8148 34.2065C30.8148 33.7074 30.9894 33.2819 31.3385 32.9301C31.6877 32.5782 32.1075 32.4023 32.5978 32.4023C33.0881 32.4023 33.5061 32.58 33.8518 32.9354C34.1975 33.2908 34.3703 33.718 34.3703 34.2171C34.3703 34.7162 34.1957 35.1417 33.8466 35.4935C33.4974 35.8454 33.0776 36.0213 32.5873 36.0213Z" fill="white"/>
</svg>
