<svg width="72" height="72" viewBox="0 0 72 72" fill="none" xmlns="http://www.w3.org/2000/svg">
<circle cx="36" cy="36" r="36" fill="#72B3EA"/>
<path d="M25.9608 50.6222C24.5054 50.6222 23.2667 50.1185 22.2444 49.1111C21.2222 48.1037 20.7111 46.8592 20.7111 45.3777H20.4444C19.7111 45.3777 19.0833 45.1166 18.5611 44.5944C18.0389 44.0722 17.7778 43.4444 17.7778 42.7111V24.8888C17.7778 24.1777 18.0444 23.5555 18.5778 23.0222C19.1111 22.4888 19.7333 22.2222 20.4444 22.2222H43.5111C44.2444 22.2222 44.8722 22.4833 45.3944 23.0055C45.9167 23.5277 46.1778 24.1555 46.1778 24.8888V29.6444H50.1778C50.4 29.6444 50.6 29.6888 50.7778 29.7777C50.9556 29.8666 51.1111 29.9999 51.2444 30.1777L56.6222 37.3333C56.7111 37.4444 56.7778 37.5666 56.8222 37.6999C56.8667 37.8333 56.8889 37.9777 56.8889 38.1333V44.0444C56.8889 44.4222 56.7611 44.7388 56.5056 44.9944C56.25 45.2499 55.9333 45.3777 55.5555 45.3777H53.7333C53.7333 46.8592 53.224 48.1037 52.2052 49.1111C51.1865 50.1185 49.9494 50.6222 48.4941 50.6222C47.0388 50.6222 45.8 50.1185 44.7778 49.1111C43.7555 48.1037 43.2444 46.8592 43.2444 45.3777H31.2C31.2 46.8592 30.6906 48.1037 29.6719 49.1111C28.6531 50.1185 27.4161 50.6222 25.9608 50.6222ZM25.9555 47.9555C26.6667 47.9555 27.2741 47.7036 27.7778 47.1999C28.2815 46.6962 28.5333 46.0888 28.5333 45.3777C28.5333 44.6666 28.2815 44.0592 27.7778 43.5555C27.2741 43.0518 26.6667 42.7999 25.9555 42.7999C25.2444 42.7999 24.637 43.0518 24.1333 43.5555C23.6296 44.0592 23.3778 44.6666 23.3778 45.3777C23.3778 46.0888 23.6296 46.6962 24.1333 47.1999C24.637 47.7036 25.2444 47.9555 25.9555 47.9555ZM48.4889 47.9555C49.2 47.9555 49.8074 47.7036 50.3111 47.1999C50.8148 46.6962 51.0667 46.0888 51.0667 45.3777C51.0667 44.6666 50.8148 44.0592 50.3111 43.5555C49.8074 43.0518 49.2 42.7999 48.4889 42.7999C47.7778 42.7999 47.1704 43.0518 46.6667 43.5555C46.163 44.0592 45.9111 44.6666 45.9111 45.3777C45.9111 46.0888 46.163 46.6962 46.6667 47.1999C47.1704 47.7036 47.7778 47.9555 48.4889 47.9555ZM46.1778 38.8888H54.4444L49.5111 32.3111H46.1778V38.8888Z" fill="white"/>
</svg>
