<svg width="48" height="48" viewBox="0 0 48 48" fill="none" xmlns="http://www.w3.org/2000/svg">
<circle cx="24" cy="24" r="24" fill="#72B3EA"/>
<path d="M17.4815 33.0452L13.8074 32.2912C13.5901 32.251 13.4074 32.1354 13.2592 31.9444C13.1111 31.7534 13.0568 31.5372 13.0963 31.296L13.5111 27.677L11.1703 24.9024C11.0123 24.7415 10.9333 24.5405 10.9333 24.2992C10.9333 24.0579 11.0123 23.8569 11.1703 23.696L13.5111 20.9516L13.0963 17.3326C13.0568 17.0913 13.1111 16.8752 13.2592 16.6842C13.4074 16.4932 13.5901 16.3776 13.8074 16.3373L17.4815 15.5834L19.3185 12.3564C19.437 12.1554 19.6049 12.0146 19.8222 11.9342C20.0395 11.8538 20.2568 11.8638 20.474 11.9644L23.7037 13.5024L26.9333 11.9644C27.1506 11.8638 27.3728 11.8437 27.6 11.904C27.8271 11.9644 27.9901 12.1051 28.0889 12.3263L29.9555 15.5834L33.6 16.3373C33.8173 16.3776 34 16.4932 34.1481 16.6842C34.2963 16.8752 34.3506 17.0913 34.3111 17.3326L33.8963 20.9516L36.237 23.696C36.395 23.8569 36.474 24.0579 36.474 24.2992C36.474 24.5405 36.395 24.7415 36.237 24.9024L33.8963 27.677L34.3111 31.296C34.3506 31.5372 34.2963 31.7534 34.1481 31.9444C34 32.1354 33.8173 32.251 33.6 32.2912L29.9555 33.0452L28.0889 36.2721C27.9901 36.4933 27.8271 36.634 27.6 36.6944C27.3728 36.7547 27.1506 36.7346 26.9333 36.634L23.7037 35.0959L20.474 36.634C20.2568 36.7346 20.0395 36.7446 19.8222 36.6642C19.6049 36.5838 19.437 36.443 19.3185 36.242L17.4815 33.0452ZM21.8074 27.677C21.9852 27.8579 22.1926 27.9484 22.4296 27.9484C22.6666 27.9484 22.874 27.8579 23.0518 27.677L28.5333 22.1579C28.6913 21.9971 28.7654 21.791 28.7555 21.5397C28.7457 21.2884 28.6518 21.0722 28.474 20.8913C28.2963 20.7103 28.0839 20.6249 27.837 20.6349C27.5901 20.645 27.3679 20.7405 27.1703 20.9214L22.4296 25.7166L20.2666 23.3944C20.0889 23.1934 19.8666 23.0979 19.6 23.1079C19.3333 23.118 19.1111 23.2235 18.9333 23.4246C18.7555 23.6257 18.6617 23.8569 18.6518 24.1182C18.6419 24.3796 18.7358 24.6008 18.9333 24.7817L21.8074 27.677Z" fill="white"/>
</svg>
