<svg width="25" height="24" viewBox="0 0 25 24" fill="none" xmlns="http://www.w3.org/2000/svg">
<path d="M12.2456 21.6251C11.9152 21.6251 11.6375 21.5116 11.4125 21.2845C11.1875 21.0574 11.075 20.7793 11.075 20.4501V18.1001H6.99997C6.67081 18.1001 6.39268 17.9861 6.1656 17.7582C5.93851 17.5303 5.82497 17.2511 5.82497 16.9207C5.82497 16.5903 5.93851 16.3126 6.1656 16.0876C6.39268 15.8626 6.67081 15.7501 6.99997 15.7501H11.075V13.6751H6.99997C6.67081 13.6751 6.39268 13.5611 6.1656 13.3332C5.93851 13.1053 5.82497 12.8261 5.82497 12.4957C5.82497 12.1653 5.93851 11.8876 6.1656 11.6626C6.39268 11.4376 6.67081 11.3251 6.99997 11.3251H9.99997L5.49997 4.1751C5.23331 3.79176 5.20852 3.39176 5.42562 2.9751C5.64272 2.55843 5.99121 2.3501 6.4711 2.3501C6.67368 2.3501 6.867 2.4058 7.05105 2.5172C7.23511 2.6286 7.38476 2.76456 7.49997 2.9251L12.25 10.4751L17 2.9251C17.1137 2.7479 17.2613 2.60776 17.4426 2.5047C17.624 2.40163 17.8181 2.3501 18.025 2.3501C18.5062 2.3501 18.8556 2.55843 19.0734 2.9751C19.2911 3.39176 19.275 3.79176 19.025 4.1751L14.525 11.3251H17.5C17.8291 11.3251 18.1073 11.4391 18.3343 11.667C18.5614 11.8949 18.675 12.1741 18.675 12.5045C18.675 12.8349 18.5614 13.1126 18.3343 13.3376C18.1073 13.5626 17.8291 13.6751 17.5 13.6751H13.425V15.7501H17.5C17.8291 15.7501 18.1073 15.8641 18.3343 16.092C18.5614 16.3199 18.675 16.5991 18.675 16.9295C18.675 17.2599 18.5614 17.5376 18.3343 17.7626C18.1073 17.9876 17.8291 18.1001 17.5 18.1001H13.425V20.4501C13.425 20.7793 13.311 21.0574 13.0831 21.2845C12.8552 21.5116 12.576 21.6251 12.2456 21.6251Z" fill="#203253"/>
</svg>
